# xmcd
#
# Track frame offsets: 
#        150
#        13960
#        30126
#        45779
#        62569
#        81128
#        96763
#        112748
#        129529
#        143952
#        159588
#        176633
#        190347
#        201793
#        218854
#        236608
#        255323
#        271101
#
# Disc length: 3813 seconds
#
# Revision: 2
# Processed by: cddbd v1.5.2PL0 Copyright (c) Steve Scherf et al.
# Submitted via: ExactAudioCopy v0.99pb5
#
DISCID=e70ee312
DTITLE=Various Artist - Hott Country 063
DYEAR=2001
DGENRE=Country
TTITLE0=Dixie Chicks - If I Fall You're Going Down With Me
TTITLE1=Tracy Byrd and Mark Chesnutt - A Good Way To Get On My Bad Sid
TTITLE1=e
TTITLE2=Mark McGuinn - Mrs. Stephan Rudy
TTITLE3=Farmer's Daughter - It's Easy To Tell
TTITLE4=George Strait - If You Can Do Anything Else
TTITLE5=Alan Jackson - When Somebody Loves You
TTITLE6=Paul Brandt - There's Nothing I Wouldn't Do
TTITLE7=Trisha Yearwood - I Would Have Loved You Anyway
TTITLE8=The Wilkinsons - I Wanna Be That Girl
TTITLE9=Kortney Kayle - Don't Let Me Down
TTITLE10=Neal McCoy - Beatin' It In
TTITLE11=Jamie O'Neal - When I Think About Angels
TTITLE12=Charlie Robison - I Want You Bad
TTITLE13=Tracy Lawrence - Unforgiven
TTITLE14=Jason McCoy - Fix Anything
TTITLE15=Brad Paisley - Two People Fell In Love
TTITLE16=South Sixty Five - The Most Beautiful Girl
TTITLE17=Cyndi Thomson - What I Really Meant To Say
EXTD=
EXTT0=
EXTT1=
EXTT2=
EXTT3=
EXTT4=
EXTT5=
EXTT6=
EXTT7=
EXTT8=
EXTT9=
EXTT10=
EXTT11=
EXTT12=
EXTT13=
EXTT14=
EXTT15=
EXTT16=
EXTT17=
PLAYORDER=
